<svg width="193" height="191" xmlns="http://www.w3.org/2000/svg">

 <g>
  <title>background</title>
  <rect fill="none" id="canvas_background" height="193" width="195" y="-1" x="-1"/>
 </g>
 <g>
  <title>Layer 1</title>
  <g stroke="null" id="svg_4">
   <path stroke="null" id="svg_1" d="m102.388134,0c9.513162,0.748721 18.925656,2.875341 27.799154,6.396637c14.599013,5.754876 27.708972,15.203023 37.824048,27.193047c9.517357,11.235011 16.383779,24.701504 19.835866,39.01529c1.228993,5.020836 2.002881,10.146534 2.430722,15.295302c-7.93183,0.031459 -15.865757,-0.121641 -23.782905,-0.585135c-8.38274,-0.536898 -16.78855,-1.390482 -24.965759,-3.376585c-7.57949,-1.849782 -15.087674,-4.804818 -21.081637,-9.917933c-5.306063,-4.45877 -9.093711,-10.496776 -11.52653,-16.939553c-3.397558,-8.965778 -4.720928,-18.546052 -5.574512,-28.044534c-0.778083,-9.655776 -1.019267,-19.349302 -0.958447,-29.036537z" fill="#000000"/>
   <path stroke="null" id="svg_2" d="m0,102.442663c6.723809,-0.035653 13.447618,0.067112 20.163038,0.379604c8.349184,0.419452 16.715146,1.113644 24.921716,2.766283c7.195692,1.463886 14.359925,3.695369 20.584587,7.680159c3.863149,2.466375 7.269096,5.65211 9.970364,9.355868c4.708344,6.444874 7.273291,14.171172 8.90286,21.912151c1.954644,9.460731 2.667712,19.12909 3.032635,28.76599c0.230698,4.330838 0.174072,8.672162 0.3062,13.005097c-0.102766,1.321273 0.071307,2.644642 -0.054529,3.968012c-13.871264,-0.954252 -27.492955,-5.146671 -39.594133,-11.97744c-13.611204,-7.675964 -25.276153,-18.753681 -33.66099,-31.937044c-8.370157,-13.139321 -13.497952,-28.367511 -14.571748,-43.918679z" fill="#000000"/>
   <path stroke="null" id="svg_3" d="m161.048439,103.41579c9.718693,-0.805347 19.479332,-1.021365 29.231582,-0.97103c-0.878751,11.054647 -3.613575,21.975069 -8.214959,32.073366c-6.826575,15.119133 -17.705052,28.363317 -31.156864,38.063135c-8.6428,6.247731 -18.344715,11.027382 -28.570945,14.060017c-6.491013,1.946255 -13.19385,3.127012 -19.942826,3.691174c-0.073404,-7.503989 0.102766,-15.007978 0.490758,-22.499384c0.522217,-8.590369 1.325467,-17.205904 3.298987,-25.601228c1.816225,-7.705326 4.731414,-15.360317 9.867599,-21.488505c4.483938,-5.442384 10.624709,-9.313923 17.17864,-11.784493c8.894471,-3.359807 18.392952,-4.697858 27.81803,-5.543053z" fill="#000000"/>
  </g>
 </g>
</svg>